<svg width="108" height="24" viewBox="0 0 108 24" fill="none" xmlns="http://www.w3.org/2000/svg">
<path fill-rule="evenodd" clip-rule="evenodd" d="M1.07527 0.5C0.757557 0.5 0.5 0.757557 0.5 1.07527V4.52688C0.5 4.84459 0.757556 5.10215 1.07527 5.10215H15.0078C15.2718 5.10215 15.5019 4.92249 15.5659 4.6664L16.4288 1.21479C16.5196 0.851713 16.245 0.5 15.8707 0.5H1.07527ZM4.52688 23.5107H1.07527C0.757557 23.5107 0.5 23.2532 0.5 22.9355V10.2796C0.5 9.96186 0.757557 9.7043 1.07527 9.7043H13.5697C13.9439 9.7043 14.2185 10.056 14.1278 10.4191L13.2648 13.8707C13.2008 14.1268 12.9707 14.3064 12.7068 14.3064H5.67742C5.35971 14.3064 5.10215 14.564 5.10215 14.8817V22.9355C5.10215 23.2532 4.84459 23.5107 4.52688 23.5107Z" fill="#FF5762"/>
<path fill-rule="evenodd" clip-rule="evenodd" d="M25.2365 0.5C25.5542 0.5 25.8118 0.757556 25.8118 1.07527V22.9355C25.8118 23.2532 25.5542 23.5107 25.2365 23.5107H21.7849C21.4672 23.5107 21.2097 23.2532 21.2097 22.9355V1.07527C21.2097 0.757557 21.4672 0.5 21.7849 0.5H25.2365Z" fill="#FF5762"/>
<path d="M48.6726 0.5H51.2747C51.827 0.5 52.2747 0.947716 52.2747 1.5V22.5107C52.2747 23.063 51.827 23.5107 51.2747 23.5107H49.83C49.2278 23.5107 48.6576 23.2394 48.2778 22.7719L38.2058 10.3756C37.9089 10.0103 37.3177 10.2202 37.3177 10.6909V22.5111C37.3177 23.0634 36.87 23.5111 36.3177 23.5111H33.7156C33.1633 23.5111 32.7156 23.0634 32.7156 22.5111V1.5C32.7156 0.947715 33.1633 0.5 33.7156 0.5H35.1596C35.7619 0.5 36.3321 0.771393 36.7119 1.23881L46.7845 13.6359C47.0814 14.0013 47.6726 13.7914 47.6726 13.3206V1.5C47.6726 0.947715 48.1203 0.5 48.6726 0.5Z" fill="#FF5762"/>
<path d="M79.8871 12.0054C79.8871 18.3596 74.736 23.5107 68.3817 23.5107C62.0275 23.5107 56.8763 18.3596 56.8763 12.0054C56.8763 5.65113 62.0275 0.5 68.3817 0.5C74.736 0.5 79.8871 5.65113 79.8871 12.0054ZM61.4539 12.0054C61.4539 15.8315 64.5556 18.9332 68.3817 18.9332C72.2079 18.9332 75.3096 15.8315 75.3096 12.0054C75.3096 8.17922 72.2079 5.07751 68.3817 5.07751C64.5556 5.07751 61.4539 8.17922 61.4539 12.0054Z" fill="#FF5762"/>
<path d="M106.5 23.5107H103.898C103.346 23.5107 102.898 23.063 102.898 22.5107V11.1458C102.898 10.6666 102.289 10.4619 101.999 10.8438L97.19 17.1892C96.5898 17.9811 95.3994 17.9811 94.7992 17.1892L89.9899 10.8438C89.7004 10.4619 89.0914 10.6666 89.0914 11.1458V22.5107C89.0914 23.063 88.6437 23.5107 88.0914 23.5107H85.4892C84.9369 23.5107 84.4892 23.063 84.4892 22.5107V1.51022C84.4892 0.959576 84.9344 0.512542 85.485 0.510232L87.4239 0.502096C87.7384 0.500776 88.0352 0.647445 88.2251 0.898054L95.5961 10.6233C95.7962 10.8873 96.193 10.8873 96.3931 10.6233L103.748 0.918962C103.937 0.66953 104.232 0.522995 104.545 0.522995H106.5C107.052 0.522995 107.5 0.970711 107.5 1.523V22.5107C107.5 23.063 107.052 23.5107 106.5 23.5107Z" fill="#FF5762"/>
</svg>
