<svg width="138" height="41" viewBox="0 0 138 41" fill="none" xmlns="http://www.w3.org/2000/svg">
<g clip-path="url(#clip0_1308_29041)">
<path d="M132.889 40.2593H5.11111C2.24889 40.2593 0 37.9593 0 35.2593V5.25928C0 2.45928 2.35111 0.259277 5.11111 0.259277H132.889C135.751 0.259277 138 2.55928 138 5.25928V35.2593C138 37.9593 135.751 40.2593 132.889 40.2593Z" fill="black"/>
<path d="M132.889 1.05928C135.24 1.05928 137.182 2.95928 137.182 5.25928V35.2593C137.182 37.5593 135.24 39.4593 132.889 39.4593H5.11111C2.76 39.4593 0.817778 37.5593 0.817778 35.2593V5.25928C0.817778 2.95928 2.76 1.05928 5.11111 1.05928H132.889ZM132.889 0.259277H5.11111C2.24889 0.259277 0 2.55928 0 5.25928V35.2593C0 38.0593 2.35111 40.2593 5.11111 40.2593H132.889C135.751 40.2593 138 37.9593 138 35.2593V5.25928C138 2.55928 135.751 0.259277 132.889 0.259277Z" fill="#A6A6A6"/>
<path d="M48.4533 10.4592C48.4533 11.2592 48.2489 11.9592 47.7378 12.4592C47.1244 13.0592 46.4089 13.3592 45.4889 13.3592C44.5689 13.3592 43.8533 13.0592 43.24 12.4592C42.6267 11.8592 42.32 11.1592 42.32 10.2592C42.32 9.35918 42.6267 8.65918 43.24 8.05918C43.8533 7.45918 44.5689 7.15918 45.4889 7.15918C45.8978 7.15918 46.3067 7.25918 46.7156 7.45918C47.1244 7.65918 47.4311 7.85918 47.6356 8.15918L47.1244 8.65918C46.7156 8.15918 46.2044 7.95918 45.4889 7.95918C44.8756 7.95918 44.2622 8.15918 43.8533 8.65918C43.3422 9.05918 43.1378 9.65918 43.1378 10.3592C43.1378 11.0592 43.3422 11.6592 43.8533 12.0592C44.3645 12.4592 44.8756 12.7592 45.4889 12.7592C46.2044 12.7592 46.7156 12.5592 47.2267 12.0592C47.5333 11.7592 47.7378 11.3592 47.7378 10.8592H45.4889V10.1592H48.4533C48.4533 10.1592 48.4533 10.3592 48.4533 10.4592Z" fill="white" stroke="white" stroke-width="0.2" stroke-miterlimit="10"/>
<path d="M53.1556 7.95928H50.3956V9.85928H52.9511V10.5593H50.3956V12.4593H53.1556V13.2593H49.5778V7.25928H53.1556V7.95928Z" fill="white" stroke="white" stroke-width="0.2" stroke-miterlimit="10"/>
<path d="M56.5289 13.2593H55.7111V7.95928H53.9733V7.25928H58.2667V7.95928H56.5289V13.2593Z" fill="white" stroke="white" stroke-width="0.2" stroke-miterlimit="10"/>
<path d="M61.2311 13.2593V7.25928H62.0489V13.2593H61.2311Z" fill="white" stroke="white" stroke-width="0.2" stroke-miterlimit="10"/>
<path d="M65.5245 13.2593H64.7067V7.95928H62.9689V7.25928H67.16V7.95928H65.4222V13.2593H65.5245Z" fill="white" stroke="white" stroke-width="0.2" stroke-miterlimit="10"/>
<path d="M75.2355 12.4592C74.6222 13.0592 73.9067 13.3592 72.9867 13.3592C72.0667 13.3592 71.3511 13.0592 70.7378 12.4592C70.1244 11.8592 69.8178 11.1592 69.8178 10.2592C69.8178 9.35918 70.1244 8.65918 70.7378 8.05918C71.3511 7.45918 72.0667 7.15918 72.9867 7.15918C73.9067 7.15918 74.6222 7.45918 75.2355 8.05918C75.8489 8.65918 76.1555 9.35918 76.1555 10.2592C76.1555 11.1592 75.8489 11.8592 75.2355 12.4592ZM71.3511 11.9592C71.76 12.3592 72.3733 12.6592 72.9867 12.6592C73.6 12.6592 74.2133 12.4592 74.6222 11.9592C75.0311 11.5592 75.3378 10.9592 75.3378 10.2592C75.3378 9.55918 75.1333 8.95918 74.6222 8.55918C74.2133 8.15918 73.6 7.85918 72.9867 7.85918C72.3733 7.85918 71.76 8.05918 71.3511 8.55918C70.9422 8.95918 70.6356 9.55918 70.6356 10.2592C70.6356 10.9592 70.84 11.5592 71.3511 11.9592Z" fill="white" stroke="white" stroke-width="0.2" stroke-miterlimit="10"/>
<path d="M77.28 13.2593V7.25928H78.2L81.1644 11.9593V10.7593V7.25928H81.9822V13.2593H81.1644L77.9956 8.35928V9.55928V13.2593H77.28Z" fill="white" stroke="white" stroke-width="0.2" stroke-miterlimit="10"/>
<path d="M69.6133 22.0594C67.16 22.0594 65.2178 23.8594 65.2178 26.3594C65.2178 28.7594 67.16 30.6594 69.6133 30.6594C72.0667 30.6594 74.0089 28.8594 74.0089 26.3594C74.0089 23.7594 72.0667 22.0594 69.6133 22.0594ZM69.6133 28.8594C68.2844 28.8594 67.16 27.7594 67.16 26.2594C67.16 24.7594 68.2844 23.6594 69.6133 23.6594C70.9422 23.6594 72.0667 24.6594 72.0667 26.2594C72.0667 27.7594 70.9422 28.8594 69.6133 28.8594ZM60.1067 22.0594C57.6533 22.0594 55.7111 23.8594 55.7111 26.3594C55.7111 28.7594 57.6533 30.6594 60.1067 30.6594C62.56 30.6594 64.5022 28.8594 64.5022 26.3594C64.5022 23.7594 62.56 22.0594 60.1067 22.0594ZM60.1067 28.8594C58.7778 28.8594 57.6533 27.7594 57.6533 26.2594C57.6533 24.7594 58.7778 23.6594 60.1067 23.6594C61.4356 23.6594 62.56 24.6594 62.56 26.2594C62.56 27.7594 61.4356 28.8594 60.1067 28.8594ZM48.76 23.3594V25.1594H53.1556C53.0533 26.1594 52.6444 26.9594 52.1333 27.4594C51.52 28.0594 50.4978 28.7594 48.76 28.7594C46 28.7594 43.9556 26.6594 43.9556 23.9594C43.9556 21.2594 46.1022 19.1594 48.76 19.1594C50.1911 19.1594 51.3156 19.7594 52.1333 20.4594L53.4622 19.1594C52.3378 18.1594 50.9067 17.3594 48.8622 17.3594C45.1822 17.3594 42.0133 20.3594 42.0133 23.9594C42.0133 27.5594 45.1822 30.5594 48.8622 30.5594C50.9067 30.5594 52.3378 29.9594 53.5644 28.6594C54.7911 27.4594 55.2 25.7594 55.2 24.4594C55.2 24.0594 55.2 23.6594 55.0978 23.3594H48.76ZM95.1689 24.7594C94.76 23.7594 93.7378 22.0594 91.4889 22.0594C89.24 22.0594 87.4 23.7594 87.4 26.3594C87.4 28.7594 89.24 30.6594 91.6933 30.6594C93.6355 30.6594 94.8622 29.4594 95.2711 28.7594L93.84 27.7594C93.3289 28.4594 92.7155 28.9594 91.6933 28.9594C90.6711 28.9594 90.0578 28.5594 89.5467 27.6594L95.3733 25.2594L95.1689 24.7594ZM89.24 26.1594C89.24 24.5594 90.5689 23.6594 91.4889 23.6594C92.2044 23.6594 92.92 24.0594 93.1244 24.5594L89.24 26.1594ZM84.4356 30.2594H86.3778V17.7594H84.4356V30.2594ZM81.3689 22.9594C80.8578 22.4594 80.04 21.9594 79.0178 21.9594C76.8711 21.9594 74.8267 23.8594 74.8267 26.2594C74.8267 28.6594 76.7689 30.4594 79.0178 30.4594C80.04 30.4594 80.8578 29.9594 81.2667 29.4594H81.3689V30.0594C81.3689 31.6594 80.4489 32.5594 79.0178 32.5594C77.8933 32.5594 77.0756 31.7594 76.8711 31.0594L75.2356 31.7594C75.7467 32.8594 76.9733 34.2594 79.12 34.2594C81.3689 34.2594 83.2089 32.9594 83.2089 29.8594V22.2594H81.3689V22.9594ZM79.12 28.8594C77.7911 28.8594 76.6667 27.7594 76.6667 26.2594C76.6667 24.7594 77.7911 23.6594 79.12 23.6594C80.4489 23.6594 81.4711 24.7594 81.4711 26.2594C81.4711 27.7594 80.4489 28.8594 79.12 28.8594ZM104.062 17.7594H99.4622V30.2594H101.404V25.5594H104.062C106.209 25.5594 108.253 24.0594 108.253 21.6594C108.253 19.2594 106.209 17.7594 104.062 17.7594ZM104.164 23.7594H101.404V19.4594H104.164C105.596 19.4594 106.413 20.6594 106.413 21.5594C106.311 22.6594 105.493 23.7594 104.164 23.7594ZM115.92 21.9594C114.489 21.9594 113.058 22.5594 112.547 23.8594L114.284 24.5594C114.693 23.8594 115.307 23.6594 116.022 23.6594C117.044 23.6594 117.964 24.2594 118.067 25.2594V25.3594C117.76 25.1594 116.942 24.8594 116.124 24.8594C114.284 24.8594 112.444 25.8594 112.444 27.6594C112.444 29.3594 113.978 30.4594 115.613 30.4594C116.942 30.4594 117.556 29.8594 118.067 29.2594H118.169V30.2594H120.009V25.4594C119.804 23.2594 118.067 21.9594 115.92 21.9594ZM115.716 28.8594C115.102 28.8594 114.182 28.5594 114.182 27.7594C114.182 26.7594 115.307 26.4594 116.227 26.4594C117.044 26.4594 117.453 26.6594 117.964 26.8594C117.76 28.0594 116.738 28.8594 115.716 28.8594ZM126.449 22.2594L124.302 27.6594H124.2L121.951 22.2594H119.907L123.28 29.8594L121.338 34.0594H123.28L128.493 22.2594H126.449ZM109.276 30.2594H111.218V17.7594H109.276V30.2594Z" fill="white"/>
<path d="M10.6311 7.75928C10.3244 8.05928 10.12 8.55928 10.12 9.15928V31.2593C10.12 31.8593 10.3244 32.3593 10.6311 32.6593L10.7333 32.7593L23.4089 20.3593V20.2593V20.1593L10.6311 7.75928Z" fill="url(#paint0_linear_1308_29041)"/>
<path d="M27.6 24.5591L23.4089 20.4591V20.2591V20.1591L27.6 16.0591L27.7022 16.1591L32.7111 18.9591C34.1422 19.7591 34.1422 21.0591 32.7111 21.8591L27.6 24.5591Z" fill="url(#paint1_linear_1308_29041)"/>
<path d="M27.7022 24.4593L23.4089 20.2593L10.6311 32.7593C11.1422 33.2593 11.8578 33.2593 12.7778 32.8593L27.7022 24.4593Z" fill="url(#paint2_linear_1308_29041)"/>
<path d="M27.7022 16.0591L12.7778 7.75915C11.8578 7.25915 11.1422 7.35915 10.6311 7.85915L23.4089 20.2591L27.7022 16.0591Z" fill="url(#paint3_linear_1308_29041)"/>
<path opacity="0.2" d="M27.6 24.3591L12.7778 32.5591C11.96 33.0591 11.2444 32.9591 10.7333 32.5591L10.6311 32.6591L10.7333 32.7591C11.2444 33.1591 11.96 33.2591 12.7778 32.7591L27.6 24.3591Z" fill="black"/>
<path opacity="0.12" d="M10.6301 32.5592C10.3235 32.2592 10.2213 31.7592 10.2213 31.1592V31.2592C10.2213 31.8592 10.4257 32.3592 10.7324 32.6592V32.5592H10.6301Z" fill="black"/>
<path opacity="0.12" d="M32.7111 21.5593L27.6 24.3593L27.7022 24.4593L32.7111 21.6593C33.4267 21.2593 33.7333 20.7593 33.7333 20.2593C33.7333 20.7593 33.3245 21.1593 32.7111 21.5593Z" fill="black"/>
<path opacity="0.25" d="M12.7768 7.85916L32.7101 18.9592C33.3235 19.3592 33.7324 19.7592 33.7324 20.2592C33.7324 19.7592 33.4257 19.2592 32.7101 18.8592L12.7768 7.75916C11.3457 6.95916 10.2213 7.65916 10.2213 9.25916V9.35916C10.2213 7.75916 11.3457 7.05916 12.7768 7.85916Z" fill="white"/>
</g>
<defs>
<linearGradient id="paint0_linear_1308_29041" x1="22.2841" y1="8.96898" x2="5.50579" y2="26.1202" gradientUnits="userSpaceOnUse">
<stop stop-color="#00A0FF"/>
<stop offset="0.00657445" stop-color="#00A1FF"/>
<stop offset="0.2601" stop-color="#00BEFF"/>
<stop offset="0.5122" stop-color="#00D2FF"/>
<stop offset="0.7604" stop-color="#00DFFF"/>
<stop offset="1" stop-color="#00E3FF"/>
</linearGradient>
<linearGradient id="paint1_linear_1308_29041" x1="34.5863" y1="20.2605" x2="9.85165" y2="20.2605" gradientUnits="userSpaceOnUse">
<stop stop-color="#FFE000"/>
<stop offset="0.4087" stop-color="#FFBD00"/>
<stop offset="0.7754" stop-color="#FFA500"/>
<stop offset="1" stop-color="#FF9C00"/>
</linearGradient>
<linearGradient id="paint2_linear_1308_29041" x1="25.3787" y1="22.5554" x2="2.6259" y2="45.8138" gradientUnits="userSpaceOnUse">
<stop stop-color="#FF3A44"/>
<stop offset="1" stop-color="#C31162"/>
</linearGradient>
<linearGradient id="paint3_linear_1308_29041" x1="7.45945" y1="0.435345" x2="17.6196" y2="10.8212" gradientUnits="userSpaceOnUse">
<stop stop-color="#32A071"/>
<stop offset="0.0685" stop-color="#2DA771"/>
<stop offset="0.4762" stop-color="#15CF74"/>
<stop offset="0.8009" stop-color="#06E775"/>
<stop offset="1" stop-color="#00F076"/>
</linearGradient>
<clipPath id="clip0_1308_29041">
<rect width="138" height="40" fill="white" transform="translate(0 0.259277)"/>
</clipPath>
</defs>
</svg>
