<svg width="136" height="41" viewBox="0 0 136 41" fill="none" xmlns="http://www.w3.org/2000/svg">
<g clip-path="url(#clip0_1308_29006)">
<path d="M125.444 0.259279H9.56145C9.19372 0.259279 8.8304 0.259279 8.46364 0.261279C8.15663 0.263279 7.85207 0.269089 7.54211 0.273979C6.86874 0.281881 6.19695 0.340955 5.53259 0.450689C4.86915 0.562812 4.2265 0.774195 3.62637 1.07769C3.02697 1.38375 2.47929 1.78145 2.00318 2.25635C1.52457 2.72992 1.12561 3.2773 0.82165 3.87744C0.516847 4.47639 0.305496 5.11822 0.194896 5.78076C0.083244 6.44246 0.0231632 7.1118 0.0151925 7.78276C0.00588648 8.08936 0.00490373 8.39698 0 8.70362V31.8179C0.00490373 32.1284 0.00588648 32.4292 0.0151925 32.7398C0.0231657 33.4107 0.0832464 34.08 0.194896 34.7417C0.30519 35.4046 0.516554 36.0468 0.82165 36.646C1.12548 37.2442 1.52449 37.7893 2.00318 38.2603C2.47748 38.7373 3.02552 39.1353 3.62637 39.439C4.2265 39.7433 4.86908 39.9559 5.53259 40.0698C6.19707 40.1786 6.86879 40.2377 7.54211 40.2466C7.85207 40.2534 8.15663 40.2573 8.46364 40.2573C8.83039 40.2593 9.19374 40.2593 9.56145 40.2593H125.444C125.804 40.2593 126.171 40.2593 126.531 40.2573C126.837 40.2573 127.15 40.2534 127.455 40.2466C128.128 40.2382 128.798 40.1791 129.461 40.0698C130.127 39.9551 130.772 39.7425 131.375 39.439C131.975 39.1351 132.523 38.7371 132.996 38.2603C133.474 37.7875 133.874 37.2427 134.181 36.646C134.484 36.0464 134.693 35.4042 134.802 34.7417C134.914 34.0799 134.976 33.4108 134.988 32.7398C134.992 32.4292 134.992 32.1284 134.992 31.8179C135 31.4546 135 31.0933 135 30.7241V9.79541C135 9.4292 135 9.06592 134.992 8.70362C134.992 8.39698 134.992 8.08936 134.988 7.78272C134.976 7.1117 134.914 6.44251 134.802 5.78072C134.693 5.11856 134.484 4.47678 134.181 3.8774C133.562 2.67448 132.581 1.6953 131.375 1.0776C130.772 0.774846 130.127 0.563519 129.461 0.450599C128.798 0.340382 128.128 0.281287 127.455 0.273839C127.15 0.268959 126.837 0.263099 126.531 0.261149C126.171 0.259149 125.804 0.259279 125.444 0.259279Z" fill="#A6A6A6"/>
<path d="M8.46856 39.3843C8.16303 39.3843 7.86487 39.3804 7.56174 39.3736C6.93376 39.3654 6.30725 39.3109 5.68735 39.2105C5.10932 39.1112 4.54937 38.9265 4.02596 38.6626C3.50735 38.4008 3.03433 38.0575 2.62504 37.646C2.20981 37.2393 1.86412 36.7675 1.60166 36.2495C1.33631 35.7281 1.15267 35.1692 1.05714 34.5923C0.953972 33.9724 0.898156 33.3456 0.890169 32.7173C0.883812 32.5064 0.875488 31.8042 0.875488 31.8042V8.70362C0.875488 8.70362 0.884353 8.01221 0.89022 7.80908C0.897867 7.18176 0.953358 6.55593 1.05621 5.93701C1.15192 5.35853 1.3357 4.79803 1.6012 4.27491C1.8627 3.75722 2.20647 3.28514 2.61919 2.87696C3.03145 2.4649 3.50597 2.11988 4.02547 1.85449C4.54767 1.59137 5.10657 1.40801 5.68343 1.31055C6.30537 1.20911 6.93405 1.15427 7.5642 1.14649L8.46906 1.13428H126.526L127.442 1.14698C128.066 1.15438 128.689 1.20873 129.305 1.30957C129.888 1.40825 130.453 1.59289 130.981 1.85742C132.022 2.39226 132.869 3.23844 133.403 4.27735C133.664 4.79686 133.845 5.35278 133.939 5.92627C134.044 6.55027 134.102 7.18102 134.114 7.81348C134.117 8.09668 134.117 8.40088 134.117 8.70362C134.125 9.07862 134.125 9.43555 134.125 9.79541V30.7241C134.125 31.0874 134.125 31.4419 134.117 31.7993C134.117 32.1245 134.117 32.4224 134.113 32.729C134.101 33.3502 134.044 33.9696 133.941 34.5825C133.848 35.1635 133.665 35.7268 133.4 36.2525C133.136 36.7649 132.792 37.2325 132.381 37.6382C131.972 38.052 131.498 38.3972 130.978 38.6607C130.451 38.9267 129.887 39.112 129.305 39.2105C128.686 39.3114 128.059 39.366 127.431 39.3736C127.137 39.3804 126.83 39.3843 126.531 39.3843L125.444 39.3863L8.46856 39.3843Z" fill="black"/>
<path d="M24.8384 20.5599C24.8492 19.7252 25.0715 18.9068 25.4847 18.1809C25.8979 17.4549 26.4885 16.845 27.2016 16.4078C26.7486 15.7626 26.151 15.2317 25.4562 14.8571C24.7614 14.4826 23.9887 14.2747 23.1992 14.2501C21.5153 14.0739 19.8828 15.2549 19.0247 15.2549C18.1499 15.2549 16.8287 14.2676 15.406 14.2968C14.4858 14.3264 13.5889 14.5933 12.8028 15.0714C12.0168 15.5494 11.3683 16.2224 10.9205 17.0247C8.98111 20.3731 10.4278 25.2941 12.2856 28.0007C13.2151 29.3261 14.3014 30.8066 15.7228 30.7541C17.1138 30.6965 17.6333 29.8696 19.3123 29.8696C20.9757 29.8696 21.4631 30.7541 22.9133 30.7207C24.4059 30.6965 25.3463 29.3894 26.2432 28.0515C26.911 27.1072 27.4249 26.0634 27.7659 24.959C26.8987 24.5933 26.1587 23.9811 25.6382 23.1988C25.1176 22.4165 24.8394 21.4987 24.8384 20.5599Z" fill="white"/>
<path d="M22.0991 12.4701C22.9129 11.4959 23.3139 10.2437 23.2168 8.97949C21.9735 9.10971 20.825 9.70227 20.0002 10.6391C19.5969 11.0968 19.288 11.6292 19.0913 12.206C18.8945 12.7827 18.8136 13.3925 18.8533 14.0005C19.4751 14.0069 20.0904 13.8725 20.6526 13.6074C21.2148 13.3423 21.7094 12.9534 22.0991 12.4701Z" fill="white"/>
<path d="M42.421 27.399H37.6743L36.5344 30.7554H34.5239L39.0199 18.3374H41.1088L45.6047 30.7554H43.56L42.421 27.399ZM38.166 25.8501H41.9285L40.0737 20.4029H40.0218L38.166 25.8501Z" fill="white"/>
<path d="M55.3146 26.229C55.3146 29.0425 53.8045 30.8501 51.5256 30.8501C50.9484 30.8802 50.3743 30.7476 49.869 30.4674C49.3638 30.1873 48.948 29.7709 48.669 29.2661H48.6259V33.7504H46.7623V21.7016H48.5662V23.2075H48.6005C48.8922 22.705 49.3151 22.2908 49.8242 22.009C50.3332 21.7271 50.9094 21.5882 51.4914 21.6069C53.7956 21.6069 55.3146 23.4233 55.3146 26.229ZM53.399 26.229C53.399 24.396 52.4491 23.1909 50.9997 23.1909C49.5758 23.1909 48.6181 24.4214 48.6181 26.229C48.6181 28.0532 49.5758 29.2749 50.9997 29.2749C52.4491 29.2749 53.399 28.0786 53.399 26.229Z" fill="white"/>
<path d="M65.3074 26.229C65.3074 29.0424 63.7973 30.8501 61.5184 30.8501C60.9412 30.8802 60.3671 30.7476 59.8618 30.4674C59.3566 30.1873 58.9408 29.7709 58.6618 29.2661H58.6187V33.7504H56.7551V21.7016H58.5589V23.2075H58.5932C58.885 22.705 59.3079 22.2908 59.817 22.009C60.326 21.7271 60.9022 21.5882 61.4841 21.6069C63.7885 21.6069 65.3074 23.4233 65.3074 26.229ZM63.3918 26.229C63.3918 24.396 62.4419 23.1909 60.9925 23.1909C59.5686 23.1909 58.6109 24.4213 58.6109 26.229C58.6109 28.0532 59.5686 29.2749 60.9925 29.2749C62.4419 29.2749 63.3918 28.0786 63.3918 26.229H63.3918Z" fill="white"/>
<path d="M71.9118 27.2955C72.0499 28.5269 73.2495 29.3355 74.8889 29.3355C76.4597 29.3355 77.5898 28.5269 77.5898 27.4165C77.5898 26.4526 76.9082 25.8755 75.2943 25.48L73.6804 25.0923C71.3938 24.5415 70.3322 23.4751 70.3322 21.7446C70.3322 19.6021 72.2046 18.1304 74.8634 18.1304C77.4948 18.1304 79.2987 19.6021 79.3594 21.7446H77.4781C77.3655 20.5054 76.3382 19.7573 74.837 19.7573C73.3357 19.7573 72.3084 20.5142 72.3084 21.6157C72.3084 22.4937 72.9645 23.0103 74.5696 23.4057L75.9416 23.7417C78.4966 24.3442 79.5582 25.3677 79.5582 27.1841C79.5582 29.5073 77.7024 30.9624 74.7508 30.9624C71.9891 30.9624 70.1245 29.5415 70.0041 27.2954L71.9118 27.2955Z" fill="white"/>
<path d="M83.5802 19.5591V21.7017H85.3067V23.1733H83.5802V28.1645C83.5802 28.9399 83.9259 29.3013 84.6848 29.3013C84.8898 29.2977 85.0944 29.2834 85.2979 29.2583V30.7212C84.9567 30.7847 84.6098 30.8135 84.2628 30.8071C82.4246 30.8071 81.7078 30.1186 81.7078 28.3628V23.1733H80.3877V21.7017H81.7077V19.5591H83.5802Z" fill="white"/>
<path d="M86.3066 26.229C86.3066 23.3804 87.9891 21.5903 90.6126 21.5903C93.245 21.5903 94.9196 23.3803 94.9196 26.229C94.9196 29.0855 93.2538 30.8677 90.6126 30.8677C87.9724 30.8677 86.3066 29.0854 86.3066 26.229ZM93.0207 26.229C93.0207 24.2749 92.1227 23.1216 90.6126 23.1216C89.1025 23.1216 88.2055 24.2837 88.2055 26.229C88.2055 28.1909 89.1025 29.3355 90.6126 29.3355C92.1227 29.3355 93.0207 28.1909 93.0207 26.229H93.0207Z" fill="white"/>
<path d="M96.4561 21.7018H98.2335V23.2428H98.2766C98.3969 22.7615 98.6797 22.3362 99.0774 22.0383C99.4751 21.7404 99.9635 21.5881 100.46 21.607C100.675 21.6063 100.889 21.6296 101.099 21.6764V23.4147C100.828 23.332 100.545 23.2941 100.262 23.3024C99.9909 23.2914 99.721 23.339 99.4705 23.4419C99.2199 23.5448 98.9947 23.7005 98.8102 23.8984C98.6257 24.0963 98.4863 24.3317 98.4017 24.5883C98.317 24.845 98.289 25.1169 98.3197 25.3854V30.7555H96.4561L96.4561 21.7018Z" fill="white"/>
<path d="M109.691 28.0962C109.441 29.7397 107.836 30.8677 105.782 30.8677C103.141 30.8677 101.501 29.103 101.501 26.272C101.501 23.4321 103.15 21.5903 105.704 21.5903C108.216 21.5903 109.795 23.311 109.795 26.0562V26.6929H103.383V26.8052C103.353 27.1384 103.395 27.474 103.505 27.7899C103.616 28.1057 103.793 28.3945 104.024 28.6371C104.255 28.8796 104.535 29.0704 104.845 29.1967C105.156 29.323 105.49 29.3819 105.825 29.3696C106.265 29.4108 106.707 29.3091 107.085 29.0796C107.463 28.8502 107.756 28.5053 107.922 28.0962L109.691 28.0962ZM103.392 25.394H107.931C107.947 25.0944 107.902 24.7946 107.797 24.5134C107.692 24.2322 107.53 23.9757 107.321 23.7599C107.111 23.5441 106.86 23.3738 106.582 23.2596C106.303 23.1454 106.004 23.0897 105.704 23.0962C105.4 23.0944 105.099 23.1525 104.819 23.2673C104.538 23.382 104.282 23.5511 104.067 23.7647C103.853 23.9783 103.682 24.2323 103.566 24.512C103.45 24.7916 103.391 25.0914 103.392 25.3941V25.394Z" fill="white"/>
<path d="M37.9324 8.99017C38.3231 8.96221 38.7151 9.02107 39.0803 9.1625C39.4454 9.30394 39.7745 9.52442 40.0439 9.80804C40.3132 10.0917 40.5161 10.4314 40.6378 10.8026C40.7595 11.1739 40.7971 11.5675 40.7479 11.955C40.7479 13.8613 39.7147 14.957 37.9324 14.957H35.7711V8.99017H37.9324ZM36.7004 14.1132H37.8286C38.1078 14.1298 38.3871 14.0842 38.6464 13.9795C38.9057 13.8749 39.1383 13.714 39.3273 13.5084C39.5163 13.3029 39.657 13.0578 39.7391 12.7912C39.8212 12.5246 39.8426 12.2431 39.8019 11.9672C39.8397 11.6923 39.8161 11.4126 39.7327 11.1479C39.6494 10.8832 39.5083 10.6402 39.3197 10.4363C39.1311 10.2324 38.8997 10.0726 38.6419 9.96833C38.3841 9.86409 38.1063 9.81801 37.8286 9.83338H36.7004V14.1132Z" fill="white"/>
<path d="M41.7977 12.7036C41.7693 12.4076 41.8032 12.1091 41.8973 11.827C41.9914 11.5449 42.1436 11.2856 42.3441 11.0656C42.5446 10.8456 42.789 10.6699 43.0616 10.5496C43.3343 10.4293 43.6291 10.3672 43.9272 10.3672C44.2253 10.3672 44.5201 10.4293 44.7927 10.5496C45.0653 10.6699 45.3097 10.8456 45.5102 11.0656C45.7107 11.2856 45.8629 11.5449 45.957 11.827C46.0511 12.1091 46.085 12.4076 46.0567 12.7036C46.0856 12.9998 46.052 13.2988 45.9582 13.5813C45.8643 13.8638 45.7122 14.1236 45.5117 14.3441C45.3111 14.5645 45.0666 14.7406 44.7937 14.8611C44.5208 14.9817 44.2256 15.0439 43.9272 15.0439C43.6287 15.0439 43.3335 14.9817 43.0607 14.8611C42.7878 14.7406 42.5432 14.5645 42.3426 14.3441C42.1421 14.1236 41.99 13.8638 41.8961 13.5813C41.8023 13.2988 41.7687 12.9998 41.7977 12.7036ZM45.14 12.7036C45.14 11.7275 44.7003 11.1567 43.9286 11.1567C43.154 11.1567 42.7182 11.7275 42.7182 12.7036C42.7182 13.6875 43.154 14.2539 43.9286 14.2539C44.7003 14.2539 45.14 13.6835 45.14 12.7036H45.14Z" fill="white"/>
<path d="M51.718 14.957H50.7936L49.8603 11.6406H49.7898L48.8604 14.957H47.9448L46.7001 10.4541H47.604L48.4129 13.8901H48.4795L49.4079 10.4541H50.2628L51.1912 13.8901H51.2617L52.0667 10.4541H52.9578L51.718 14.957Z" fill="white"/>
<path d="M54.0047 10.4541H54.8626V11.1695H54.9292C55.0421 10.9126 55.2327 10.6972 55.4742 10.5534C55.7158 10.4096 55.9963 10.3445 56.2767 10.3672C56.4964 10.3508 56.717 10.3838 56.9222 10.4639C57.1274 10.544 57.3118 10.6691 57.4619 10.8299C57.612 10.9908 57.7239 11.1832 57.7893 11.3931C57.8547 11.6029 57.8719 11.8247 57.8397 12.042V14.957H56.9485V12.2652C56.9485 11.5416 56.6332 11.1817 55.9741 11.1817C55.8249 11.1748 55.676 11.2001 55.5375 11.2559C55.3991 11.3117 55.2744 11.3968 55.172 11.5051C55.0696 11.6135 54.9919 11.7427 54.9442 11.8838C54.8966 12.025 54.8801 12.1747 54.8959 12.3228V14.9571H54.0047L54.0047 10.4541Z" fill="white"/>
<path d="M59.2596 8.69629H60.1508V14.957H59.2596V8.69629Z" fill="white"/>
<path d="M61.3896 12.7036C61.3613 12.4077 61.3952 12.1091 61.4894 11.827C61.5835 11.545 61.7357 11.2856 61.9362 11.0656C62.1367 10.8456 62.3812 10.6699 62.6538 10.5496C62.9264 10.4293 63.2213 10.3672 63.5194 10.3672C63.8175 10.3672 64.1123 10.4293 64.385 10.5496C64.6576 10.6699 64.902 10.8456 65.1025 11.0656C65.3031 11.2856 65.4553 11.545 65.5494 11.827C65.6435 12.1091 65.6775 12.4077 65.6491 12.7036C65.678 12.9999 65.6444 13.2989 65.5505 13.5814C65.4567 13.8639 65.3045 14.1237 65.104 14.3441C64.9034 14.5645 64.6588 14.7407 64.3859 14.8612C64.113 14.9817 63.8178 15.044 63.5194 15.044C63.2209 15.044 62.9257 14.9817 62.6528 14.8612C62.3799 14.7407 62.1353 14.5645 61.9348 14.3441C61.7342 14.1237 61.5821 13.8639 61.4882 13.5814C61.3943 13.2989 61.3607 12.9999 61.3896 12.7036ZM64.732 12.7036C64.732 11.7276 64.2923 11.1568 63.5206 11.1568C62.746 11.1568 62.3102 11.7276 62.3102 12.7037C62.3102 13.6876 62.746 14.254 63.5206 14.254C64.2923 14.2539 64.732 13.6836 64.732 12.7036H64.732Z" fill="white"/>
<path d="M66.5873 13.6836C66.5873 12.873 67.1925 12.4058 68.2668 12.3393L69.4899 12.269V11.8804C69.4899 11.4048 69.1746 11.1362 68.5655 11.1362C68.068 11.1362 67.7233 11.3184 67.6244 11.6367H66.7616C66.8527 10.8633 67.5823 10.3672 68.6066 10.3672C69.7387 10.3672 70.3772 10.9292 70.3772 11.8804V14.957H69.5193V14.3242H69.4488C69.3057 14.5512 69.1047 14.7363 68.8664 14.8605C68.6281 14.9847 68.3611 15.0436 68.0925 15.0312C67.9029 15.0509 67.7113 15.0307 67.53 14.972C67.3488 14.9133 67.1819 14.8174 67.04 14.6904C66.8982 14.5635 66.7847 14.4083 66.7067 14.2348C66.6287 14.0614 66.588 13.8736 66.5873 13.6836ZM69.4899 13.2988V12.9224L68.3872 12.9927C67.7654 13.0342 67.4833 13.2451 67.4833 13.6421C67.4833 14.0473 67.8359 14.2832 68.3207 14.2832C68.4627 14.2975 68.6062 14.2832 68.7426 14.2411C68.879 14.199 69.0055 14.13 69.1146 14.0382C69.2237 13.9463 69.3131 13.8336 69.3776 13.7065C69.4421 13.5795 69.4803 13.4409 69.4899 13.2988Z" fill="white"/>
<path d="M71.5485 12.7036C71.5485 11.2808 72.282 10.3794 73.4229 10.3794C73.7051 10.3664 73.9851 10.4338 74.2304 10.5737C74.4756 10.7136 74.6758 10.9202 74.8076 11.1694H74.8742V8.69629H75.7654V14.957H74.9114V14.2456H74.8409C74.6989 14.4931 74.4917 14.6971 74.2417 14.8356C73.9918 14.9741 73.7086 15.0417 73.4229 15.0312C72.2741 15.0313 71.5485 14.1299 71.5485 12.7036ZM72.469 12.7036C72.469 13.6587 72.9205 14.2334 73.6756 14.2334C74.4267 14.2334 74.8909 13.6504 74.8909 12.7075C74.8909 11.7691 74.4218 11.1777 73.6756 11.1777C72.9254 11.1777 72.469 11.7564 72.469 12.7036H72.469Z" fill="white"/>
<path d="M79.4524 12.7036C79.424 12.4076 79.458 12.1091 79.5521 11.827C79.6462 11.5449 79.7984 11.2856 79.9989 11.0656C80.1994 10.8456 80.4438 10.6699 80.7164 10.5496C80.989 10.4293 81.2838 10.3672 81.5819 10.3672C81.88 10.3672 82.1748 10.4293 82.4474 10.5496C82.7201 10.6699 82.9645 10.8456 83.165 11.0656C83.3655 11.2856 83.5176 11.5449 83.6117 11.827C83.7059 12.1091 83.7398 12.4076 83.7114 12.7036C83.7403 12.9998 83.7068 13.2988 83.6129 13.5813C83.5191 13.8638 83.367 14.1236 83.1664 14.3441C82.9659 14.5645 82.7213 14.7406 82.4484 14.8611C82.1755 14.9817 81.8804 15.0439 81.5819 15.0439C81.2835 15.0439 80.9883 14.9817 80.7154 14.8611C80.4425 14.7406 80.1979 14.5645 79.9974 14.3441C79.7968 14.1236 79.6447 13.8638 79.5509 13.5813C79.457 13.2988 79.4235 12.9998 79.4524 12.7036ZM82.7948 12.7036C82.7948 11.7275 82.3551 11.1567 81.5834 11.1567C80.8088 11.1567 80.373 11.7275 80.373 12.7036C80.373 13.6875 80.8088 14.2539 81.5834 14.2539C82.3551 14.2539 82.7948 13.6835 82.7948 12.7036Z" fill="white"/>
<path d="M84.9071 10.4541H85.765V11.1695H85.8316C85.9446 10.9126 86.1351 10.6972 86.3767 10.5534C86.6182 10.4096 86.8987 10.3445 87.1791 10.3672C87.3988 10.3508 87.6195 10.3838 87.8246 10.4639C88.0298 10.544 88.2143 10.6691 88.3644 10.8299C88.5145 10.9908 88.6264 11.1832 88.6918 11.3931C88.7571 11.6029 88.7743 11.8247 88.7421 12.042V14.957H87.8509V12.2652C87.8509 11.5416 87.5356 11.1817 86.8765 11.1817C86.7273 11.1748 86.5784 11.2001 86.44 11.2559C86.3015 11.3117 86.1768 11.3968 86.0744 11.5051C85.972 11.6135 85.8943 11.7427 85.8467 11.8838C85.799 12.025 85.7825 12.1747 85.7983 12.3228V14.9571H84.9071V10.4541Z" fill="white"/>
<path d="M93.7777 9.33301V10.4746H94.756V11.2231H93.7777V13.5386C93.7777 14.0103 93.9726 14.2168 94.4162 14.2168C94.5298 14.2164 94.6432 14.2096 94.756 14.1963V14.9365C94.596 14.9651 94.4338 14.9803 94.2712 14.9819C93.2802 14.9819 92.8855 14.6343 92.8855 13.7661V11.2231H92.1687V10.4746H92.8855V9.33301H93.7777Z" fill="white"/>
<path d="M95.9733 8.69629H96.8566V11.1777H96.9271C97.0456 10.9184 97.2413 10.7018 97.4877 10.5575C97.7341 10.4131 98.0191 10.348 98.304 10.3711C98.5225 10.3592 98.741 10.3956 98.9439 10.4777C99.1467 10.5597 99.3289 10.6854 99.4774 10.8457C99.626 11.0061 99.7372 11.1971 99.8032 11.4052C99.8691 11.6134 99.8882 11.8335 99.8591 12.0498V14.957H98.967V12.269C98.967 11.5498 98.6311 11.1855 98.0014 11.1855C97.8483 11.173 97.6942 11.194 97.55 11.2471C97.4058 11.3001 97.275 11.3839 97.1667 11.4927C97.0584 11.6014 96.9753 11.7324 96.9231 11.8766C96.8709 12.0207 96.8509 12.1745 96.8645 12.3271V14.957H95.9733L95.9733 8.69629Z" fill="white"/>
<path d="M105.055 13.7413C104.934 14.1528 104.672 14.5088 104.314 14.747C103.957 14.9851 103.526 15.0903 103.099 15.044C102.801 15.0518 102.506 14.995 102.232 14.8775C101.959 14.76 101.715 14.5845 101.516 14.3634C101.318 14.1423 101.17 13.8807 101.083 13.5969C100.996 13.3131 100.972 13.0138 101.013 12.7198C100.973 12.4249 100.998 12.125 101.084 11.8403C101.171 11.5556 101.318 11.2929 101.515 11.0698C101.713 10.8467 101.956 10.6686 102.229 10.5473C102.501 10.4261 102.796 10.3647 103.095 10.3673C104.351 10.3673 105.109 11.2233 105.109 12.6373V12.9474H101.921V12.9972C101.907 13.1624 101.927 13.3287 101.982 13.4855C102.036 13.6422 102.123 13.7859 102.236 13.9074C102.349 14.0288 102.486 14.1254 102.639 14.1908C102.792 14.2562 102.957 14.289 103.123 14.2872C103.336 14.3127 103.552 14.2744 103.744 14.1772C103.935 14.08 104.093 13.9282 104.197 13.7413L105.055 13.7413ZM101.921 12.2901H104.201C104.213 12.139 104.192 11.9872 104.141 11.8445C104.09 11.7017 104.009 11.5713 103.905 11.4614C103.8 11.3516 103.673 11.2647 103.533 11.2066C103.393 11.1484 103.242 11.1201 103.09 11.1236C102.936 11.1217 102.783 11.1505 102.64 11.2085C102.497 11.2664 102.368 11.3523 102.259 11.461C102.15 11.5697 102.064 11.6991 102.006 11.8415C101.947 11.9839 101.919 12.1364 101.921 12.2901H101.921Z" fill="white"/>
</g>
<defs>
<clipPath id="clip0_1308_29006">
<rect width="136" height="40" fill="white" transform="translate(0 0.259277)"/>
</clipPath>
</defs>
</svg>
