<svg width="120" height="120" viewBox="0 0 120 120" fill="none" xmlns="http://www.w3.org/2000/svg">
<rect x="0.5" y="0.5" width="119" height="119" rx="59.5" stroke="url(#paint0_linear_1174_28605)"/>
<path fill-rule="evenodd" clip-rule="evenodd" d="M44 46C44 42.6863 46.6863 40 50 40H70C73.3137 40 76 42.6863 76 46V74C76 77.3137 73.3137 80 70 80H50C46.6863 80 44 77.3137 44 74V46ZM50 44C48.8954 44 48 44.8954 48 46V74C48 75.1046 48.8954 76 50 76H70C71.1046 76 72 75.1046 72 74V46C72 44.8954 71.1046 44 70 44H50Z" fill="#FF5762"/>
<path d="M52 64C52 62.8954 52.8954 62 54 62C55.1046 62 56 62.8954 56 64C56 65.1046 55.1046 66 54 66C52.8954 66 52 65.1046 52 64Z" fill="#FF5762"/>
<path d="M52 70C52 68.8954 52.8954 68 54 68C55.1046 68 56 68.8954 56 70C56 71.1046 55.1046 72 54 72C52.8954 72 52 71.1046 52 70Z" fill="#FF5762"/>
<path d="M58 64C58 62.8954 58.8954 62 60 62C61.1046 62 62 62.8954 62 64C62 65.1046 61.1046 66 60 66C58.8954 66 58 65.1046 58 64Z" fill="#FF5762"/>
<path d="M58 70C58 68.8954 58.8954 68 60 68C61.1046 68 62 68.8954 62 70C62 71.1046 61.1046 72 60 72C58.8954 72 58 71.1046 58 70Z" fill="#FF5762"/>
<path d="M64 64C64 62.8954 64.8954 62 66 62C67.1046 62 68 62.8954 68 64C68 65.1046 67.1046 66 66 66C64.8954 66 64 65.1046 64 64Z" fill="#FF5762"/>
<path d="M64 70C64 68.8954 64.8954 68 66 68C67.1046 68 68 68.8954 68 70C68 71.1046 67.1046 72 66 72C64.8954 72 64 71.1046 64 70Z" fill="#FF5762"/>
<path d="M52 50C52 48.8954 52.8954 48 54 48H66C67.1046 48 68 48.8954 68 50V52C68 53.1046 67.1046 54 66 54H54C52.8954 54 52 53.1046 52 52V50Z" fill="#FF5762"/>
<defs>
<linearGradient id="paint0_linear_1174_28605" x1="60" y1="0" x2="60" y2="120" gradientUnits="userSpaceOnUse">
<stop stop-color="#6C789D"/>
<stop offset="1" stop-color="#42548C"/>
</linearGradient>
</defs>
</svg>
