<svg width="44" height="40" viewBox="0 0 44 40" fill="none" xmlns="http://www.w3.org/2000/svg">
<path d="M38 0H6C2.7 0 0 2.7 0 6V14C0 17.3 2.7 20 6 20H8V34C8 37.3 10.7 40 14 40H30C33.3 40 36 37.3 36 34V20H38C41.3 20 44 17.3 44 14V6C44 2.7 41.3 0 38 0ZM32 34C32 35.1 31.1 36 30 36H14C12.9 36 12 35.1 12 34V12H32V34ZM40 14C40 15.1 39.1 16 38 16H36V12C37.1 12 38 11.1 38 10C38 8.9 37.1 8 36 8H8C6.9 8 6 8.9 6 10C6 11.1 6.9 12 8 12V16H6C4.9 16 4 15.1 4 14V6C4 4.9 4.9 4 6 4H38C39.1 4 40 4.9 40 6V14ZM22 16C17.58 16 14 19.58 14 24C14 28.42 17.58 32 22 32C26.42 32 30 28.42 30 24C30 19.58 26.42 16 22 16ZM22 28C19.8 28 18 26.2 18 24C18 21.8 19.8 20 22 20C24.2 20 26 21.8 26 24C26 26.2 24.2 28 22 28Z" fill="white"/>
</svg>
