<svg width="120" height="120" viewBox="0 0 120 120" fill="none" xmlns="http://www.w3.org/2000/svg">
<rect x="0.5" y="0.5" width="119" height="119" rx="59.5" stroke="url(#paint0_linear_1174_28575)"/>
<path d="M60 67.9999C55.58 67.9999 52 64.4199 52 59.9999C52 55.5799 55.58 51.9999 60 51.9999C64.42 51.9999 68 55.5799 68 59.9999C68 64.4199 64.42 67.9999 60 67.9999ZM60 55.9999C57.8 55.9999 56 57.7999 56 59.9999C56 62.1999 57.8 63.9999 60 63.9999C62.2 63.9999 64 62.1999 64 59.9999C64 57.7999 62.2 55.9999 60 55.9999ZM63 79.9999H57.08C56.22 79.9999 55.46 79.4399 55.18 78.6399L53.9 74.8199L50.28 76.6199C49.52 76.9999 48.58 76.8599 47.98 76.2399L43.78 72.0599C43.16 71.4599 43.02 70.5199 43.4 69.7399L45.2 66.1599L41.36 64.8799C40.54 64.6199 40 63.8599 40 62.9999V57.0799C40 56.2199 40.56 55.4599 41.36 55.1799L45.18 53.8999L43.38 50.2799C42.98 49.5199 43.14 48.5999 43.74 47.9799L47.92 43.7799C48.54 43.1599 49.46 43.0199 50.24 43.3999L53.82 45.1999L55.1 41.3599C55.38 40.5399 56.14 39.9999 57 39.9999H62.92C63.78 39.9999 64.54 40.5599 64.82 41.3599L66.1 45.1799L69.72 43.3799C70.48 42.9999 71.42 43.1399 72.02 43.7599L76.22 47.9399C76.84 48.5399 76.98 49.4799 76.6 50.2599L74.8 53.8399L78.64 55.1199C79.46 55.3799 80 56.1399 80 56.9999V62.9199C80 63.7799 79.44 64.5399 78.64 64.8199L74.82 66.0999L76.62 69.7199C77 70.4799 76.86 71.4199 76.24 72.0199L72.06 76.2199C71.46 76.8399 70.52 76.9799 69.74 76.5999L66.16 74.7999L64.88 78.6399C64.62 79.4599 63.86 79.9999 63 79.9999ZM58.52 75.9999H61.56L62.4 73.5199C62.76 72.4199 63.6 71.5399 64.66 71.0999C65.74 70.6599 66.94 70.6999 67.98 71.2199L70.26 72.3599L72.4 70.1999L71.24 67.8599C70.72 66.8199 70.68 65.6199 71.12 64.5399C71.56 63.4599 72.44 62.6399 73.54 62.2799L76 61.4799V58.4399L73.52 57.5999C72.42 57.2399 71.54 56.3999 71.1 55.3399C70.66 54.2599 70.7 53.0599 71.22 52.0199L72.36 49.7199L70.2 47.5999L67.86 48.7599C66.82 49.2799 65.62 49.3199 64.54 48.8799C63.46 48.4399 62.64 47.5399 62.28 46.4599L61.48 43.9999H58.44L57.6 46.4799C57.24 47.5799 56.4 48.4599 55.34 48.8999C54.26 49.3399 53.06 49.2999 52.02 48.7799L49.74 47.6399L47.6 49.7999L48.76 52.1399C49.28 53.1799 49.32 54.3799 48.88 55.4599C48.44 56.5399 47.54 57.3599 46.46 57.7199L44 58.5199V61.5599L46.48 62.3799C47.58 62.7399 48.46 63.5799 48.9 64.6399C49.34 65.7199 49.3 66.9199 48.78 67.9599L47.64 70.2399L49.8 72.3999L52.14 71.2399C53.18 70.7199 54.38 70.6799 55.46 71.1199C56.54 71.5599 57.36 72.4399 57.72 73.5399L58.52 75.9999Z" fill="#FF5762"/>
<defs>
<linearGradient id="paint0_linear_1174_28575" x1="60" y1="0" x2="60" y2="120" gradientUnits="userSpaceOnUse">
<stop stop-color="#6C789D"/>
<stop offset="1" stop-color="#42548C"/>
</linearGradient>
</defs>
</svg>
