<svg width="48" height="48" viewBox="0 0 48 48" fill="none" xmlns="http://www.w3.org/2000/svg">
<rect x="0.5" y="0.5" width="47" height="47" rx="9.53922" stroke="white"/>
<path d="M24 34C18.49 34 14 29.51 14 24C14 18.49 18.49 14 24 14C29.51 14 34 18.49 34 24C34 29.51 29.51 34 24 34ZM24 16C19.59 16 16 19.59 16 24C16 28.41 19.59 32 24 32C28.41 32 32 28.41 32 24C32 19.59 28.41 16 24 16ZM27.83 26.55C28.14 26.09 28.01 25.47 27.55 25.16L25 23.46V19C25 18.45 24.55 18 24 18C23.45 18 23 18.45 23 19V24C23 24.33 23.17 24.65 23.45 24.83L26.45 26.83C26.91 27.14 27.53 27.01 27.83 26.55Z" fill="white"/>
</svg>
