<svg width="48" height="48" viewBox="0 0 48 48" fill="none" xmlns="http://www.w3.org/2000/svg">
<rect x="0.5" y="0.5" width="47" height="47" rx="9.53922" stroke="white"/>
<g clip-path="url(#clip0_1459_28922)">
<path d="M13.8327 20.3535C13.4812 20.7765 12.9187 21.11 12.3562 21.0624C12.2858 20.4905 12.5612 19.8829 12.8835 19.5076C13.2351 19.0727 13.8503 18.763 14.3484 18.7391C14.4069 19.3348 14.1784 19.9186 13.8327 20.3535ZM14.3425 21.1756C13.528 21.1279 12.8308 21.6462 12.444 21.6462C12.0515 21.6462 11.4597 21.1994 10.8151 21.2113C9.97724 21.2232 9.19794 21.7058 8.7702 22.4742C7.89129 24.0111 8.54168 26.2867 9.3913 27.5377C9.80732 28.1572 10.3054 28.8364 10.9616 28.8125C11.5827 28.7887 11.8288 28.4015 12.5788 28.4015C13.3347 28.4015 13.5515 28.8125 14.2077 28.8006C14.8874 28.7887 15.3152 28.1811 15.7312 27.5615C16.2058 26.8586 16.3991 26.1735 16.4109 26.1378C16.3991 26.1259 15.0984 25.6195 15.0866 24.0945C15.0749 22.8197 16.112 22.2121 16.1589 22.1764C15.573 21.2947 14.6589 21.1994 14.3425 21.1756ZM19.0476 19.448V28.7351H20.4656V25.56H22.4285C24.2214 25.56 25.4812 24.309 25.4812 22.498C25.4812 20.6871 24.2449 19.448 22.4753 19.448H19.0476ZM20.4656 20.6633H22.1003C23.3308 20.6633 24.0339 21.3305 24.0339 22.504C24.0339 23.6775 23.3308 24.3507 22.0945 24.3507H20.4656V20.6633ZM28.0711 28.8066C28.9617 28.8066 29.7879 28.3479 30.1629 27.6211H30.1922V28.7351H31.5047V24.1124C31.5047 22.7721 30.45 21.9083 28.8269 21.9083C27.3211 21.9083 26.2078 22.784 26.1668 23.9873H27.4441C27.5496 23.4154 28.0711 23.0401 28.7859 23.0401C29.6531 23.0401 30.1394 23.4512 30.1394 24.2077V24.72L28.3699 24.8273C26.7234 24.9285 25.8328 25.6136 25.8328 26.805C25.8328 28.0083 26.7527 28.8066 28.0711 28.8066ZM28.4519 27.7045C27.6961 27.7045 27.2156 27.3352 27.2156 26.7693C27.2156 26.1855 27.6785 25.8459 28.5633 25.7923L30.1394 25.691V26.2152C30.1394 27.085 29.4129 27.7045 28.4519 27.7045ZM33.2566 31.2609C34.6395 31.2609 35.2899 30.7247 35.8582 29.0985L38.3485 21.9976H36.9071L35.2371 27.4841H35.2078L33.5379 21.9976H32.0555L34.4578 28.7589L34.3289 29.1699C34.1121 29.8669 33.7606 30.135 33.1336 30.135C33.0223 30.135 32.8055 30.1231 32.7176 30.1112V31.2251C32.7996 31.249 33.1512 31.2609 33.2566 31.2609Z" fill="white"/>
</g>
<defs>
<clipPath id="clip0_1459_28922">
<rect width="31.3043" height="12.5217" fill="white" transform="translate(8.34778 18.7391)"/>
</clipPath>
</defs>
</svg>
