<svg width="48" height="48" viewBox="0 0 48 48" fill="none" xmlns="http://www.w3.org/2000/svg">
<rect x="0.5" y="0.5" width="47" height="47" rx="9.53922" stroke="white"/>
<path d="M29 21V19C29 16.24 26.76 14 24 14C21.24 14 19 16.24 19 19V21C17.35 21 16 22.35 16 24V31C16 32.65 17.35 34 19 34H29C30.65 34 32 32.65 32 31V24C32 22.35 30.65 21 29 21ZM21 19C21 17.35 22.35 16 24 16C25.65 16 27 17.35 27 19V21H21V19ZM30 31C30 31.55 29.55 32 29 32H19C18.45 32 18 31.55 18 31V24C18 23.45 18.45 23 19 23H29C29.55 23 30 23.45 30 24V31Z" fill="white"/>
</svg>
