<svg width="48" height="48" viewBox="0 0 48 48" fill="none" xmlns="http://www.w3.org/2000/svg">
<rect x="0.5" y="0.5" width="47" height="47" rx="9.53922" stroke="white"/>
<path d="M33 14H29C26.24 14 24.02 15.24 22.05 18.01C22.04 18.01 22.02 18 22 18H18.35C17.12 18 16.03 18.74 15.57 19.89L14.07 23.63C13.95 23.94 13.98 24.29 14.17 24.56C14.36 24.83 14.67 25 15 25H18.64C18.44 25.54 18.25 26.1 18.05 26.68C17.93 27.04 18.02 27.44 18.29 27.7L20.29 29.7C20.48 29.9 20.74 30 21 30C21.19 30 21.28 29.99 23 29.36V33C23 33.33 23.16 33.64 23.44 33.83C23.72 34.02 24.07 34.05 24.37 33.93L28.11 32.43C29.26 31.97 30 30.88 30 29.64V26C30 25.98 29.99 25.96 29.99 25.95C32.76 23.98 34 21.76 34 19V15C34 14.45 33.55 14 33 14ZM16.48 23L17.43 20.63C17.58 20.25 17.94 20 18.35 20H20.83C20.35 20.89 19.88 21.89 19.42 23H16.48ZM28 29.65C28 30.06 27.75 30.43 27.37 30.58L25 31.52V28.58C26.11 28.12 27.11 27.65 28 27.17V29.65ZM32 19C32 21.69 30.68 24.62 21.27 27.85L20.15 26.73C23.38 17.32 26.31 16 29 16H32V19ZM29 18C29.55 18 30 18.45 30 19C30 19.55 29.55 20 29 20C28.45 20 28 19.55 28 19C28 18.45 28.45 18 29 18Z" fill="white"/>
</svg>
