<svg width="24" height="25" viewBox="0 0 24 25" fill="none" xmlns="http://www.w3.org/2000/svg">
<path fill-rule="evenodd" clip-rule="evenodd" d="M5.25 3.25928H18.75C19.9926 3.25928 21 4.26664 21 5.50928V19.0093C21 20.2519 19.9926 21.2593 18.75 21.2593H5.25C4.00736 21.2593 3 20.2519 3 19.0093V5.50928C3 4.26664 4.00736 3.25928 5.25 3.25928ZM6.67421 5.16699C5.64266 5.16699 4.96869 5.84516 4.96869 6.73403C4.96869 7.60422 5.62218 8.30108 6.63428 8.30108H6.65378C7.70505 8.30108 8.35941 7.60422 8.35941 6.73403C8.33991 5.84516 7.70511 5.16699 6.67421 5.16699ZM8.16134 9.53999H5.14634V18.609H8.16134V9.53999ZM12.8438 10.824C13.2449 10.2063 13.9613 9.32673 15.5605 9.32673C17.5439 9.32673 19.0312 10.6226 19.0312 13.4083V18.609H16.0168V13.7567C16.0168 12.5381 15.58 11.7061 14.4898 11.7061C13.657 11.7061 13.1607 12.267 12.9432 12.8083C12.8632 13.0021 12.8437 13.2731 12.8437 13.5442V18.609H9.82955C9.82955 18.609 9.86954 10.3907 9.82955 9.53999H12.8438V10.824Z" fill="#AFB3C0"/>
</svg>
