<svg width="24" height="25" viewBox="0 0 24 25" fill="none" xmlns="http://www.w3.org/2000/svg">
<path d="M8 3.25928C5.239 3.25928 3 5.49828 3 8.25928V16.2593C3 19.0203 5.239 21.2593 8 21.2593H16C18.761 21.2593 21 19.0203 21 16.2593V8.25928C21 5.49828 18.761 3.25928 16 3.25928H8ZM18 5.25928C18.552 5.25928 19 5.70728 19 6.25928C19 6.81128 18.552 7.25928 18 7.25928C17.448 7.25928 17 6.81128 17 6.25928C17 5.70728 17.448 5.25928 18 5.25928ZM12 7.25928C14.761 7.25928 17 9.49828 17 12.2593C17 15.0203 14.761 17.2593 12 17.2593C9.239 17.2593 7 15.0203 7 12.2593C7 9.49828 9.239 7.25928 12 7.25928ZM12 9.25928C11.2044 9.25928 10.4413 9.57535 9.87868 10.138C9.31607 10.7006 9 11.4636 9 12.2593C9 13.0549 9.31607 13.818 9.87868 14.3806C10.4413 14.9432 11.2044 15.2593 12 15.2593C12.7956 15.2593 13.5587 14.9432 14.1213 14.3806C14.6839 13.818 15 13.0549 15 12.2593C15 11.4636 14.6839 10.7006 14.1213 10.138C13.5587 9.57535 12.7956 9.25928 12 9.25928Z" fill="#A1A6B5"/>
</svg>
