<svg width="120" height="120" viewBox="0 0 120 120" fill="none" xmlns="http://www.w3.org/2000/svg">
<rect x="0.5" y="0.5" width="119" height="119" rx="59.5" stroke="url(#paint0_linear_1174_28595)"/>
<path d="M54 44C53.4696 44 52.9609 44.2107 52.5858 44.5858C52.2107 44.9609 52 45.4696 52 46C52 46.5304 51.7893 47.0391 51.4142 47.4142C51.0391 47.7893 50.5304 48 50 48H44C43.4696 48 42.9609 48.2107 42.5858 48.5858C42.2107 48.9609 42 49.4696 42 50V72C42 72.5304 42.2107 73.0391 42.5858 73.4142C42.9609 73.7893 43.4696 74 44 74H76C76.5304 74 77.0391 73.7893 77.4142 73.4142C77.7893 73.0391 78 72.5304 78 72V50C78 49.4696 77.7893 48.9609 77.4142 48.5858C77.0391 48.2107 76.5304 48 76 48H70C69.4696 48 68.9609 47.7893 68.5858 47.4142C68.2107 47.0391 68 46.5304 68 46C68 45.4696 67.7893 44.9609 67.4142 44.5858C67.0391 44.2107 66.5304 44 66 44H54ZM48.342 44C48.7557 42.83 49.5219 41.8171 50.5352 41.1007C51.5485 40.3843 52.759 39.9998 54 40H66C67.241 39.9998 68.4515 40.3843 69.4648 41.1007C70.4781 41.8171 71.2443 42.83 71.658 44H76C77.5913 44 79.1174 44.6321 80.2426 45.7574C81.3679 46.8826 82 48.4087 82 50V72C82 73.5913 81.3679 75.1174 80.2426 76.2426C79.1174 77.3679 77.5913 78 76 78H44C42.4087 78 40.8826 77.3679 39.7574 76.2426C38.6321 75.1174 38 73.5913 38 72V50C38 48.4087 38.6321 46.8826 39.7574 45.7574C40.8826 44.6321 42.4087 44 44 44H48.342ZM60 54C58.8133 54 57.6533 54.3519 56.6666 55.0112C55.6799 55.6705 54.9108 56.6075 54.4567 57.7039C54.0026 58.8003 53.8838 60.0067 54.1153 61.1705C54.3468 62.3344 54.9182 63.4035 55.7574 64.2426C56.5965 65.0818 57.6656 65.6532 58.8295 65.8847C59.9933 66.1162 61.1997 65.9974 62.2961 65.5433C63.3925 65.0892 64.3295 64.3201 64.9888 63.3334C65.6481 62.3467 66 61.1867 66 60C66 58.4087 65.3679 56.8826 64.2426 55.7574C63.1174 54.6321 61.5913 54 60 54ZM50 60C50 58.0222 50.5865 56.0888 51.6853 54.4443C52.7841 52.7998 54.3459 51.5181 56.1732 50.7612C58.0004 50.0043 60.0111 49.8063 61.9509 50.1921C63.8907 50.578 65.6725 51.5304 67.0711 52.9289C68.4696 54.3275 69.422 56.1093 69.8079 58.0491C70.1937 59.9889 69.9957 61.9996 69.2388 63.8268C68.4819 65.6541 67.2002 67.2159 65.5557 68.3147C63.9112 69.4135 61.9778 70 60 70C57.3478 70 54.8043 68.9464 52.9289 67.0711C51.0536 65.1957 50 62.6522 50 60ZM76 52C76 52.3956 75.8827 52.7822 75.6629 53.1111C75.4432 53.44 75.1308 53.6964 74.7654 53.8478C74.3999 53.9991 73.9978 54.0387 73.6098 53.9616C73.2219 53.8844 72.8655 53.6939 72.5858 53.4142C72.3061 53.1345 72.1156 52.7781 72.0384 52.3902C71.9613 52.0022 72.0009 51.6001 72.1522 51.2346C72.3036 50.8692 72.56 50.5568 72.8889 50.3371C73.2178 50.1173 73.6044 50 74 50C74.5304 50 75.0391 50.2107 75.4142 50.5858C75.7893 50.9609 76 51.4696 76 52Z" fill="#FF5762"/>
<defs>
<linearGradient id="paint0_linear_1174_28595" x1="60" y1="0" x2="60" y2="120" gradientUnits="userSpaceOnUse">
<stop stop-color="#6C789D"/>
<stop offset="1" stop-color="#42548C"/>
</linearGradient>
</defs>
</svg>
