<svg width="48" height="48" viewBox="0 0 48 48" fill="none" xmlns="http://www.w3.org/2000/svg">
<rect x="0.5" y="0.5" width="47" height="47" rx="9.53922" stroke="white"/>
<g clip-path="url(#clip0_1459_28926)">
<path d="M23.0165 28.5269H21.8712V19.4624H24.9088C25.2714 19.4547 25.6319 19.5201 25.9695 19.6547C26.3071 19.7894 26.6152 19.9908 26.8759 20.2471C27.1392 20.4879 27.3487 20.7832 27.4904 21.1132C27.6322 21.4431 27.7028 21.8001 27.6975 22.1601C27.7051 22.5221 27.6355 22.8814 27.4937 23.2134C27.3519 23.5455 27.1411 23.8425 26.8759 24.084C26.3447 24.5989 25.689 24.8562 24.9088 24.8557H23.0165V28.5269ZM23.0165 23.7426H24.9373C25.1479 23.749 25.3574 23.7105 25.5526 23.6298C25.7477 23.5491 25.9241 23.4279 26.0705 23.2739C26.2162 23.13 26.332 22.9578 26.4111 22.7675C26.4901 22.5772 26.5308 22.3728 26.5308 22.1663C26.5308 21.9597 26.4901 21.7553 26.4111 21.565C26.332 21.3748 26.2162 21.2026 26.0705 21.0586C25.926 20.9014 25.7501 20.7772 25.5548 20.6943C25.3594 20.6113 25.1489 20.5716 24.9373 20.5776H23.0165V23.7426Z" fill="white"/>
<path d="M30.3368 22.1225C31.1834 22.1225 31.8516 22.3525 32.3415 22.8125C32.8314 23.2725 33.0762 23.9032 33.0757 24.7045V28.5269H31.9801V27.6663H31.9303C31.4561 28.375 30.8253 28.7294 30.038 28.7294C29.366 28.7294 28.8037 28.5269 28.3513 28.1219C28.1341 27.936 27.9606 27.7032 27.8431 27.4405C27.7257 27.1777 27.6675 26.8916 27.6726 26.6031C27.6726 25.9613 27.9112 25.4509 28.3883 25.0719C28.8654 24.6929 29.5023 24.503 30.2991 24.502C30.9792 24.502 31.5393 24.6286 31.9794 24.8817V24.6156C31.9807 24.4188 31.9389 24.2243 31.8571 24.046C31.7753 23.8678 31.6555 23.7103 31.5063 23.5849C31.2035 23.3071 30.8087 23.1555 30.4008 23.1604C29.761 23.1604 29.2548 23.4347 28.882 23.9834L27.8732 23.3376C28.4281 22.5275 29.2493 22.1225 30.3368 22.1225ZM28.8549 26.6284C28.8542 26.7766 28.8883 26.9228 28.9543 27.0549C29.0204 27.187 29.1166 27.3011 29.2348 27.3878C29.4882 27.5904 29.8026 27.6977 30.1248 27.6916C30.6081 27.6908 31.0714 27.4952 31.4131 27.1477C31.7926 26.7846 31.9823 26.3586 31.9823 25.8697C31.6251 25.5804 31.1272 25.4357 30.4883 25.4357C30.0231 25.4357 29.6351 25.5498 29.3245 25.7778C29.0107 26.0093 28.8549 26.2906 28.8549 26.6284Z" fill="white"/>
<path d="M39.3646 22.325L35.5401 31.2609H34.3577L35.777 28.1342L33.2622 22.325H34.5071L36.3248 26.7803H36.3497L38.1175 22.325H39.3646Z" fill="white"/>
<path d="M18.3882 24.0651C18.3887 23.7103 18.3592 23.356 18.3 23.0063H13.4696V25.0119H16.2363C16.1796 25.3322 16.0598 25.6376 15.884 25.9095C15.7082 26.1815 15.48 26.4145 15.2133 26.5944V27.8962H16.8644C17.8312 26.99 18.3882 25.6498 18.3882 24.0651Z" fill="white"/>
<path d="M13.4697 29.154C14.852 29.154 16.0158 28.6926 16.8645 27.897L15.2133 26.5951C14.7538 26.9119 14.1619 27.0927 13.4697 27.0927C12.1337 27.0927 10.9997 26.1771 10.5942 24.9432H8.89327V26.2848C9.31959 27.1473 9.9733 27.8723 10.7814 28.379C11.5896 28.8856 12.5203 29.1539 13.4697 29.154Z" fill="white"/>
<path d="M10.5942 24.9432C10.3799 24.2966 10.3798 23.5964 10.5942 22.9499V21.6082H8.89326C8.53463 22.3338 8.34785 23.1345 8.34785 23.9465C8.34785 24.7585 8.53464 25.5593 8.89327 26.2848L10.5942 24.9432Z" fill="white"/>
<path d="M13.4697 20.8004C14.2002 20.7883 14.906 21.0688 15.4346 21.5815L16.8965 20.0952C15.9695 19.21 14.7414 18.724 13.4697 18.7391C12.5203 18.7392 11.5896 19.0075 10.7814 19.5141C9.9733 20.0208 9.31958 20.7458 8.89326 21.6082L10.5942 22.9499C10.9997 21.716 12.1337 20.8004 13.4697 20.8004Z" fill="white"/>
</g>
<defs>
<clipPath id="clip0_1459_28926">
<rect width="31.3043" height="12.5217" fill="white" transform="translate(8.34778 18.7391)"/>
</clipPath>
</defs>
</svg>
